# xmcd
#
# Track frame offsets:
#	150
#	13952
#	33900
#	50817
#	65737
#	85160
#	101515
#	118030
#	132747
#	149337
#	165090
#	177037
#	191887
#	209842
#	227820
#	243942
#	255462
#
# Disc length: 3604
#
# Revision: 6
# Processed by: cddbd v1.5.1PL0 Copyright (c) Steve Scherf et al.
# Submitted via: audiograbber 1.81.03
# Normalized: r5:DSETVAR1
#
DISCID=f90e1211
DTITLE=Various Artist - New Country 5
DYEAR=1998
DGENRE=Country
TTITLE0=Clay Walker - Then What
TTITLE1=Anita Cochran with Steve Wariner - What If I Said
TTITLE2=Lila McMann - I Wanna Fall In Love
TTITLE3=Faith Hill - It Matters To Me
TTITLE4=John Michael Montgomery - How Was I To Know
TTITLE5=Michael Peterson - From Here To Eternity
TTITLE6=Tracy Byrd - Big Love
TTITLE7=Bryan White - Love Is The Right Place
TTITLE8=Paul Brandt - I Do
TTITLE9=Travis Tritt - Where The Corn Don't Grow
TTITLE10=Chris Cummings - The Kind of Heart That Breaks
TTITLE11=Beverley Mahood - Radio 101
TTITLE12=George Fox - I Give You My Word
TTITLE13=Mila Manson - Dark Horse
TTITLE14=Neal McCoy - The Shake
TTITLE15=Kevin Sharp - If You Love Somebody
TTITLE16=Shirley Myers - Fallin' Out of Love
EXTD=ID3G:   2
EXTT0=Walker, Clay
EXTT1=Cochran, Anita and Wariner, Steve
EXTT2=McCann, Lila
EXTT3=Hill, Faith
EXTT4=Montgomery, John Michael
EXTT5=Peterson, Michael
EXTT6=Byrd, Tracy
EXTT7=White, Bryan
EXTT8=Brandt, Paul
EXTT9=Tritt, Travis
EXTT10=Cummings, Chris
EXTT11=Mahood, Beverly
EXTT12=Fox, George
EXTT13=Mason, Mila
EXTT14=McCoy, Neal
EXTT15=Sharp, Kevin
EXTT16=Shirley Myers
PLAYORDER=
